<svg width="50" height="169" fill="none" xmlns="http://www.w3.org/2000/svg"><g clip-path="url(#a)"><path d="m34 61.5 8 4.5v42m-8-46.5V35l-8.5-3.5m8.5 30-8.503 2v40M34 61.5v44.319M25.5 31.5V.5m0 31-7.5-3m0 0V7m0 21.5-8.5 3V108M18 28.5v77.109m7.497 62.891H1.5v-35l8-1V108m15.997 60.5h23.996l-.493-35-7-1V108m-16.503 60.5v-65m0 0L34 105.819m-8.503-2.319L18 105.609M9.5 108l8.5-2.391M42 108l-8-2.181" stroke="url(#b)" stroke-width="2"/></g><defs><linearGradient id="b" x1="25.497" y1=".5" x2="25.497" y2="168" gradientUnits="userSpaceOnUse"><stop stop-color="#fff"/><stop offset="1" stop-color="#fff" stop-opacity="0"/></linearGradient><clipPath id="a"><path fill="#fff" d="M.5 0h49v169H.5z"/></clipPath></defs></svg>