<svg width="1440" height="900" fill="none" xmlns="http://www.w3.org/2000/svg"><g clip-path="url(#a)" stroke-width=".919322"><path d="m726.348 1298.91-837.633-483.612" stroke="url(#b)"/><path d="M1137.18 1395.23-400.116 507.668" stroke="url(#c)"/><path d="M1198.18 1289.57-339.116 402.013" stroke="url(#d)"/><path d="M1259.18 1183.92-278.116 296.358" stroke="url(#e)"/><path d="M1320.18 1078.26-217.116 190.703" stroke="url(#f)"/><path d="M1381.18 972.605-156.116 85.0477" stroke="url(#g)"/><path d="M1442.18 866.95-95.1162-20.6075" stroke="url(#h)"/><path d="M1503.43 760.862-33.8662-126.696" stroke="url(#i)"/><path d="M1564.93 654.341 27.6338-233.217" stroke="url(#j)"/><path d="M1626.18 548.252 88.8838-339.305" stroke="url(#k)"/><path d="M1687.18 442.597 149.884-444.96" stroke="url(#l)"/><path d="M1748.18 336.942 210.884-550.615" stroke="url(#m)"/><path d="M1459.35 29.3122 621.715-454.295" stroke="url(#n)"/><path d="m65.9996 933.608-.0001-967.2155" stroke="url(#o)"/><path d="M188 933.608V-33.6075" stroke="url(#p)"/><path d="M310 933.608V-33.6075" stroke="url(#q)"/><path d="M432 933.608V-33.6075" stroke="url(#r)"/><path d="M554 933.608V-33.6075" stroke="url(#s)"/><path d="M676 933.608V-33.6075" stroke="url(#t)"/><path d="M798 933.608V-33.6075" stroke="url(#u)"/><path d="M920 933.608V-33.6075" stroke="url(#v)"/><path d="M1042 933.608V-33.6075" stroke="url(#w)"/><path d="M1164 933.608V-33.6075" stroke="url(#x)"/><path d="M1286 933.608V-33.6075" stroke="url(#y)"/><path d="M1408 933.608V-33.6075" stroke="url(#z)"/><path d="m617.715 1303.91 837.635-483.612" stroke="url(#A)"/><path d="M206.884 1400.23 1744.18 512.668" stroke="url(#B)"/><path d="M145.884 1294.57 1683.18 407.013" stroke="url(#C)"/><path d="M84.8843 1188.92 1622.18 301.358" stroke="url(#D)"/><path d="M23.884 1083.26 1561.18 195.703" stroke="url(#E)"/><path d="M-37.116 977.605 1500.18 90.0477" stroke="url(#F)"/><path d="M-98.116 871.95 1439.18-15.6075" stroke="url(#G)"/><path d="M-159.366 765.862 1377.93-121.696" stroke="url(#H)"/><path d="M-220.866 659.341 1316.43-228.217" stroke="url(#I)"/><path d="M-282.116 553.252 1255.18-334.305" stroke="url(#J)"/><path d="M-343.116 447.597 1194.18-439.96" stroke="url(#K)"/><path d="M-404.116 341.942 1133.18-545.615" stroke="url(#L)"/><path d="M-115.285 34.3119 722.348-449.296" stroke="url(#M)"/></g><defs><linearGradient id="b" x1="-111.035" y1="814.865" x2="757.669" y2="1316.41" gradientUnits="userSpaceOnUse"><stop stop-color="#F5F5F5"/><stop offset=".5" stop-color="#E6E6E6"/><stop offset="1" stop-color="#F5F5F5"/></linearGradient><linearGradient id="c" x1="-399.866" y1="507.235" x2="1194.45" y2="1427.72" gradientUnits="userSpaceOnUse"><stop stop-color="#F5F5F5"/><stop offset=".5" stop-color="#E6E6E6"/><stop offset="1" stop-color="#F5F5F5"/></linearGradient><linearGradient id="d" x1="-338.866" y1="401.58" x2="1255.45" y2="1322.06" gradientUnits="userSpaceOnUse"><stop stop-color="#F5F5F5"/><stop offset=".5" stop-color="#E6E6E6"/><stop offset="1" stop-color="#F5F5F5"/></linearGradient><linearGradient id="e" x1="-277.866" y1="295.925" x2="1316.45" y2="1216.41" gradientUnits="userSpaceOnUse"><stop stop-color="#F5F5F5"/><stop offset=".5" stop-color="#E6E6E6"/><stop offset="1" stop-color="#F5F5F5"/></linearGradient><linearGradient id="f" x1="-216.866" y1="190.27" x2="1377.45" y2="1110.75" gradientUnits="userSpaceOnUse"><stop stop-color="#F5F5F5"/><stop offset=".5" stop-color="#E6E6E6"/><stop offset="1" stop-color="#F5F5F5"/></linearGradient><linearGradient id="g" x1="-155.866" y1="84.6147" x2="1438.45" y2="1005.1" gradientUnits="userSpaceOnUse"><stop stop-color="#F5F5F5"/><stop offset=".5" stop-color="#E6E6E6"/><stop offset="1" stop-color="#F5F5F5"/></linearGradient><linearGradient id="h" x1="-94.8662" y1="-21.0405" x2="1499.45" y2="899.44" gradientUnits="userSpaceOnUse"><stop stop-color="#F5F5F5"/><stop offset=".5" stop-color="#E6E6E6"/><stop offset="1" stop-color="#F5F5F5"/></linearGradient><linearGradient id="i" x1="-33.6162" y1="-127.129" x2="1560.7" y2="793.352" gradientUnits="userSpaceOnUse"><stop stop-color="#F5F5F5"/><stop offset=".5" stop-color="#E6E6E6"/><stop offset="1" stop-color="#F5F5F5"/></linearGradient><linearGradient id="j" x1="27.8838" y1="-233.65" x2="1622.2" y2="686.831" gradientUnits="userSpaceOnUse"><stop stop-color="#F5F5F5"/><stop offset=".5" stop-color="#E6E6E6"/><stop offset="1" stop-color="#F5F5F5"/></linearGradient><linearGradient id="k" x1="89.1338" y1="-339.738" x2="1683.45" y2="580.743" gradientUnits="userSpaceOnUse"><stop stop-color="#F5F5F5"/><stop offset=".5" stop-color="#E6E6E6"/><stop offset="1" stop-color="#F5F5F5"/></linearGradient><linearGradient id="l" x1="150.134" y1="-445.393" x2="1744.45" y2="475.088" gradientUnits="userSpaceOnUse"><stop stop-color="#F5F5F5"/><stop offset=".5" stop-color="#E6E6E6"/><stop offset="1" stop-color="#F5F5F5"/></linearGradient><linearGradient id="m" x1="211.134" y1="-551.048" x2="1805.45" y2="369.432" gradientUnits="userSpaceOnUse"><stop stop-color="#F5F5F5"/><stop offset=".5" stop-color="#E6E6E6"/><stop offset="1" stop-color="#F5F5F5"/></linearGradient><linearGradient id="n" x1="621.965" y1="-454.728" x2="1490.67" y2="46.8182" gradientUnits="userSpaceOnUse"><stop stop-color="#F5F5F5"/><stop offset=".5" stop-color="#E6E6E6"/><stop offset="1" stop-color="#F5F5F5"/></linearGradient><linearGradient id="o" x1="66.4995" y1="-33.6075" x2="66.4996" y2="969.486" gradientUnits="userSpaceOnUse"><stop stop-color="#F5F5F5"/><stop offset=".5" stop-color="#E6E6E6"/><stop offset="1" stop-color="#F5F5F5"/></linearGradient><linearGradient id="p" x1="188.5" y1="-33.6075" x2="188.5" y2="969.486" gradientUnits="userSpaceOnUse"><stop stop-color="#F5F5F5"/><stop offset=".5" stop-color="#E6E6E6"/><stop offset="1" stop-color="#F5F5F5"/></linearGradient><linearGradient id="q" x1="310.5" y1="-33.6075" x2="310.5" y2="969.486" gradientUnits="userSpaceOnUse"><stop stop-color="#F5F5F5"/><stop offset=".5" stop-color="#E6E6E6"/><stop offset="1" stop-color="#F5F5F5"/></linearGradient><linearGradient id="r" x1="432.5" y1="-33.6075" x2="432.5" y2="969.486" gradientUnits="userSpaceOnUse"><stop stop-color="#F5F5F5"/><stop offset=".5" stop-color="#E6E6E6"/><stop offset="1" stop-color="#F5F5F5"/></linearGradient><linearGradient id="s" x1="554.5" y1="-33.6075" x2="554.5" y2="969.486" gradientUnits="userSpaceOnUse"><stop stop-color="#F5F5F5"/><stop offset=".5" stop-color="#E6E6E6"/><stop offset="1" stop-color="#F5F5F5"/></linearGradient><linearGradient id="t" x1="676.5" y1="-33.6075" x2="676.5" y2="969.486" gradientUnits="userSpaceOnUse"><stop stop-color="#F5F5F5"/><stop offset=".5" stop-color="#E6E6E6"/><stop offset="1" stop-color="#F5F5F5"/></linearGradient><linearGradient id="u" x1="798.5" y1="-33.6075" x2="798.5" y2="969.486" gradientUnits="userSpaceOnUse"><stop stop-color="#F5F5F5"/><stop offset=".5" stop-color="#E6E6E6"/><stop offset="1" stop-color="#F5F5F5"/></linearGradient><linearGradient id="v" x1="920.5" y1="-33.6075" x2="920.5" y2="969.486" gradientUnits="userSpaceOnUse"><stop stop-color="#F5F5F5"/><stop offset=".5" stop-color="#E6E6E6"/><stop offset="1" stop-color="#F5F5F5"/></linearGradient><linearGradient id="w" x1="1042.5" y1="-33.6075" x2="1042.5" y2="969.486" gradientUnits="userSpaceOnUse"><stop stop-color="#F5F5F5"/><stop offset=".5" stop-color="#E6E6E6"/><stop offset="1" stop-color="#F5F5F5"/></linearGradient><linearGradient id="x" x1="1164.5" y1="-33.6075" x2="1164.5" y2="969.486" gradientUnits="userSpaceOnUse"><stop stop-color="#F5F5F5"/><stop offset=".5" stop-color="#E6E6E6"/><stop offset="1" stop-color="#F5F5F5"/></linearGradient><linearGradient id="y" x1="1286.5" y1="-33.6075" x2="1286.5" y2="969.486" gradientUnits="userSpaceOnUse"><stop stop-color="#F5F5F5"/><stop offset=".5" stop-color="#E6E6E6"/><stop offset="1" stop-color="#F5F5F5"/></linearGradient><linearGradient id="z" x1="1408.5" y1="-33.6075" x2="1408.5" y2="969.486" gradientUnits="userSpaceOnUse"><stop stop-color="#F5F5F5"/><stop offset=".5" stop-color="#E6E6E6"/><stop offset="1" stop-color="#F5F5F5"/></linearGradient><linearGradient id="A" x1="1455.1" y1="819.865" x2="586.394" y2="1321.41" gradientUnits="userSpaceOnUse"><stop stop-color="#F5F5F5"/><stop offset=".5" stop-color="#E6E6E6"/><stop offset="1" stop-color="#F5F5F5"/></linearGradient><linearGradient id="B" x1="1743.93" y1="512.235" x2="149.609" y2="1432.72" gradientUnits="userSpaceOnUse"><stop stop-color="#F5F5F5"/><stop offset=".5" stop-color="#E6E6E6"/><stop offset="1" stop-color="#F5F5F5"/></linearGradient><linearGradient id="C" x1="1682.93" y1="406.58" x2="88.6095" y2="1327.06" gradientUnits="userSpaceOnUse"><stop stop-color="#F5F5F5"/><stop offset=".5" stop-color="#E6E6E6"/><stop offset="1" stop-color="#F5F5F5"/></linearGradient><linearGradient id="D" x1="1621.93" y1="300.925" x2="27.6095" y2="1221.41" gradientUnits="userSpaceOnUse"><stop stop-color="#F5F5F5"/><stop offset=".5" stop-color="#E6E6E6"/><stop offset="1" stop-color="#F5F5F5"/></linearGradient><linearGradient id="E" x1="1560.93" y1="195.27" x2="-33.3908" y2="1115.75" gradientUnits="userSpaceOnUse"><stop stop-color="#F5F5F5"/><stop offset=".5" stop-color="#E6E6E6"/><stop offset="1" stop-color="#F5F5F5"/></linearGradient><linearGradient id="F" x1="1499.93" y1="89.6147" x2="-94.3908" y2="1010.1" gradientUnits="userSpaceOnUse"><stop stop-color="#F5F5F5"/><stop offset=".5" stop-color="#E6E6E6"/><stop offset="1" stop-color="#F5F5F5"/></linearGradient><linearGradient id="G" x1="1438.93" y1="-16.0405" x2="-155.391" y2="904.44" gradientUnits="userSpaceOnUse"><stop stop-color="#F5F5F5"/><stop offset=".5" stop-color="#E6E6E6"/><stop offset="1" stop-color="#F5F5F5"/></linearGradient><linearGradient id="H" x1="1377.68" y1="-122.129" x2="-216.641" y2="798.352" gradientUnits="userSpaceOnUse"><stop stop-color="#F5F5F5"/><stop offset=".5" stop-color="#E6E6E6"/><stop offset="1" stop-color="#F5F5F5"/></linearGradient><linearGradient id="I" x1="1316.18" y1="-228.65" x2="-278.141" y2="691.831" gradientUnits="userSpaceOnUse"><stop stop-color="#F5F5F5"/><stop offset=".5" stop-color="#E6E6E6"/><stop offset="1" stop-color="#F5F5F5"/></linearGradient><linearGradient id="J" x1="1254.93" y1="-334.738" x2="-339.391" y2="585.743" gradientUnits="userSpaceOnUse"><stop stop-color="#F5F5F5"/><stop offset=".5" stop-color="#E6E6E6"/><stop offset="1" stop-color="#F5F5F5"/></linearGradient><linearGradient id="K" x1="1193.93" y1="-440.393" x2="-400.391" y2="480.088" gradientUnits="userSpaceOnUse"><stop stop-color="#F5F5F5"/><stop offset=".5" stop-color="#E6E6E6"/><stop offset="1" stop-color="#F5F5F5"/></linearGradient><linearGradient id="L" x1="1132.93" y1="-546.048" x2="-461.391" y2="374.432" gradientUnits="userSpaceOnUse"><stop stop-color="#F5F5F5"/><stop offset=".5" stop-color="#E6E6E6"/><stop offset="1" stop-color="#F5F5F5"/></linearGradient><linearGradient id="M" x1="722.098" y1="-449.729" x2="-146.606" y2="51.818" gradientUnits="userSpaceOnUse"><stop stop-color="#F5F5F5"/><stop offset=".5" stop-color="#E6E6E6"/><stop offset="1" stop-color="#F5F5F5"/></linearGradient><clipPath id="a"><path fill="#fff" d="M0 0h1440v900H0z"/></clipPath></defs></svg>